# File created by Blade
# Date/Time:  Wed Apr 08 17:19:54 2015
# Frame Rate: 120.000 fps
#------------------------------------------------------
:FULLY-SPECIFIED
:DEGREES
1115
root 8.768514 37.998552 0.155686 162.967503 -45.549532 -146.011149
Spine 8.065533 -3.224945 -4.903058
Head 5.108797 8.819479 25.949393
LeftShoulder -7.785253 13.535720 18.561792
LeftArm 17.575167 20.754748 -75.279577
LeftForeArm 23.863151 -0.000000 27.905649
LeftHand -10.836651 -0.000000 -16.677994
LeftHandThumb1 -26.253704 0.000000 33.147579
RightShoulder -41.363756 -50.453729 31.773822
RightArm 46.143932 -21.995958 62.794467
RightForeArm 28.360516 -0.000000 5.535958
RightHand -6.257465 -0.000000 9.148484
RightHandThumb1 -24.326973 -0.000000 -32.862282
LeftUpLeg -9.853585 36.342356 15.679807
LeftLeg 15.292643 -0.000000 -0.000000
LeftFoot -13.412275 -5.203046 -19.232920
LeftToeBase 10.210756 -0.000000 -0.000000
RightUpLeg 8.699125 -5.967597 -24.465533
RightLeg 142.483889 -0.000000 -0.000000
RightFoot 39.692549 10.412516 17.497185
RightToeBase 17.781390 -0.000000 -0.000000
1116
root 8.806231 38.018689 0.120546 162.785490 -45.515598 -145.804547
Spine 8.089790 -3.204468 -4.962822
Head 5.134384 8.917253 25.976665
LeftShoulder -7.789140 13.508673 18.570327
LeftArm 17.628179 20.754775 -75.174597
LeftForeArm 23.798211 0.000000 28.182138
LeftHand -10.916800 -0.000000 -16.652768
LeftHandThumb1 -26.253704 0.000000 33.147579
RightShoulder -41.303363 -50.470230 31.669866
RightArm 46.123625 -22.058318 62.928927
RightForeArm 28.367293 -0.000000 5.494170
RightHand -6.253166 -0.000000 9.246264
RightHandThumb1 -24.326973 -0.000000 -32.862282
LeftUpLeg -9.783354 36.197151 15.971698
LeftLeg 15.245126 -0.000000 -0.000000
LeftFoot -13.322150 -5.189630 -19.386679
LeftToeBase 10.154181 -0.000000 -0.000000
RightUpLeg 8.752806 -6.064986 -24.538165
RightLeg 142.493129 -0.000000 -0.000000
RightFoot 39.794004 10.442152 17.611899
RightToeBase 17.938808 -0.000000 -0.000000
1117
root 8.842886 38.036268 0.085339 162.575369 -45.478248 -145.587894
Spine 8.140938 -3.194121 -4.997881
Head 5.131037 9.071995 25.944253
LeftShoulder -7.798004 13.459887 18.575661
LeftArm 17.613250 20.700957 -75.155863
LeftForeArm 23.900023 -0.000000 28.453548
LeftHand -10.907261 0.000000 -16.579684
LeftHandThumb1 -26.253704 0.000000 33.147579
RightShoulder -41.225317 -50.482136 31.528907
RightArm 46.110836 -22.123036 63.066514
RightForeArm 28.319213 -0.000000 5.452994
RightHand -6.282151 -0.000000 9.272329
RightHandThumb1 -24.326973 -0.000000 -32.862282
LeftUpLeg -9.670746 36.090887 16.267473
LeftLeg 15.153816 -0.000000 -0.000000
LeftFoot -13.271018 -5.172636 -19.529227
LeftToeBase 10.136985 -0.000000 -0.000000
RightUpLeg 8.815659 -6.154504 -24.635712
RightLeg 142.553920 -0.000000 -0.000000
RightFoot 39.729772 10.194311 17.765675
RightToeBase 18.314425 -0.000000 -0.000000
1118
root 8.877761 38.051098 0.051189 162.374733 -45.433824 -145.383759
Spine 8.177655 -3.181155 -5.014115
Head 5.186108 9.275979 25.857015
LeftShoulder -7.809291 13.453589 18.551601
LeftArm 17.631439 20.692692 -75.114336
LeftForeArm 23.979092 0.000000 28.698007
LeftHand -10.805175 0.000000 -16.622476
LeftHandThumb1 -26.253704 0.000000 33.147579
RightShoulder -41.172484 -50.518706 31.393415
RightArm 46.164156 -22.201966 63.149832
RightForeArm 28.394149 -0.000000 5.355567
RightHand -6.286194 -0.000000 9.390877
RightHandThumb1 -24.326973 -0.000000 -32.862282
LeftUpLeg -9.522087 36.019750 16.538327
LeftLeg 14.976076 -0.000000 -0.000000
LeftFoot -13.236631 -5.125541 -19.636461
LeftToeBase 10.567799 -0.000000 -0.000000
RightUpLeg 8.883952 -6.162183 -24.754550
RightLeg 142.610036 -0.000000 -0.000000
RightFoot 39.660284 10.121535 17.812614
RightToeBase 18.142990 -0.000000 -0.000000
